<?xml version="1.0" encoding="UTF-8" standalone="no"?>
<!-- Created with Inkscape (http://www.inkscape.org/) -->

<svg
   xmlns:dc="http://purl.org/dc/elements/1.1/"
   xmlns:cc="http://creativecommons.org/ns#"
   xmlns:rdf="http://www.w3.org/1999/02/22-rdf-syntax-ns#"
   xmlns:svg="http://www.w3.org/2000/svg"
   xmlns="http://www.w3.org/2000/svg"
   xmlns:sodipodi="http://sodipodi.sourceforge.net/DTD/sodipodi-0.dtd"
   xmlns:inkscape="http://www.inkscape.org/namespaces/inkscape"
   width="264.0871"
   height="46.173717"
   id="svg3105"
   version="1.1"
   inkscape:version="0.48.0 r9654"
   sodipodi:docname="New document 2">
  <defs
     id="defs3107" />
  <sodipodi:namedview
     inkscape:document-units="in"
     pagecolor="#ffffff"
     bordercolor="#666666"
     borderopacity="1.0"
     inkscape:pageopacity="0.0"
     inkscape:pageshadow="2"
     inkscape:zoom="0.36"
     inkscape:cx="224.76543"
     inkscape:cy="-149.11419"
     inkscape:current-layer="layer1"
     id="namedview3109"
     showgrid="false"
     fit-margin-top="0"
     fit-margin-left="0"
     fit-margin-right="0"
     fit-margin-bottom="0"
     inkscape:window-width="766"
     inkscape:window-height="427"
     inkscape:window-x="0"
     inkscape:window-y="24"
     inkscape:window-maximized="0" />
  <metadata
     id="metadata3111">
    <rdf:RDF>
      <cc:Work
         rdf:about="">
        <dc:format>image/svg+xml</dc:format>
        <dc:type
           rdf:resource="http://purl.org/dc/dcmitype/StillImage" />
        <dc:title></dc:title>
      </cc:Work>
    </rdf:RDF>
  </metadata>
  <g
     inkscape:label="Layer 1"
     inkscape:groupmode="layer"
     id="layer1"
     transform="translate(-115.23457,-294.71209)">
    <g
       style="fill-rule:evenodd"
       id="g3062"
       transform="matrix(3.543307,0,0,3.543307,-278.73688,-157.50247)">
      <g
         id="_65322120">
        <rect
           id="_65810248"
           class="fil1 str1"
           x="111.557"
           y="127.998"
           width="12.2733"
           height="12.2733"
           style="fill:#605d5c;stroke:#605d5c;stroke-width:0.75" />
        <g
           id="g28">
          <polyline
             id="_65834960"
             class="fil0 str4"
             points="112.799,137.738 116.767,130.532 118.772,135.155 120.528,132.251 122.589,136.301 "
             style="fill:none;stroke:#ffffff;stroke-width:0.75;stroke-linecap:round;stroke-linejoin:round" />
          <circle
             id="_65810504"
             class="fil3 str5"
             cx="112.799"
             cy="137.73801"
             r="0.310462"
             sodipodi:cx="112.799"
             sodipodi:cy="137.73801"
             sodipodi:rx="0.310462"
             sodipodi:ry="0.310462"
             style="fill:#ffffff;stroke:#ffffff;stroke-width:0.75"
             d="m 113.10947,137.73801 c 0,0.17146 -0.139,0.31046 -0.31047,0.31046 -0.17146,0 -0.31046,-0.139 -0.31046,-0.31046 0,-0.17147 0.139,-0.31047 0.31046,-0.31047 0.17147,0 0.31047,0.139 0.31047,0.31047 z" />
          <circle
             id="_65810128"
             class="fil3 str5"
             cx="116.767"
             cy="130.532"
             r="0.310462"
             sodipodi:cx="116.767"
             sodipodi:cy="130.532"
             sodipodi:rx="0.310462"
             sodipodi:ry="0.310462"
             style="fill:#ffffff;stroke:#ffffff;stroke-width:0.75"
             d="m 117.07746,130.532 c 0,0.17146 -0.139,0.31046 -0.31046,0.31046 -0.17147,0 -0.31046,-0.139 -0.31046,-0.31046 0,-0.17147 0.13899,-0.31046 0.31046,-0.31046 0.17146,0 0.31046,0.13899 0.31046,0.31046 z" />
          <circle
             id="_65834912"
             class="fil3 str5"
             cx="118.772"
             cy="135.155"
             r="0.310462"
             sodipodi:cx="118.772"
             sodipodi:cy="135.155"
             sodipodi:rx="0.310462"
             sodipodi:ry="0.310462"
             style="fill:#ffffff;stroke:#ffffff;stroke-width:0.75"
             d="m 119.08247,135.155 c 0,0.17146 -0.139,0.31046 -0.31047,0.31046 -0.17146,0 -0.31046,-0.139 -0.31046,-0.31046 0,-0.17146 0.139,-0.31046 0.31046,-0.31046 0.17147,0 0.31047,0.139 0.31047,0.31046 z" />
          <circle
             id="_91491136"
             class="fil3 str5"
             cx="120.528"
             cy="132.25101"
             r="0.310462"
             sodipodi:cx="120.528"
             sodipodi:cy="132.25101"
             sodipodi:rx="0.310462"
             sodipodi:ry="0.310462"
             style="fill:#ffffff;stroke:#ffffff;stroke-width:0.75"
             d="m 120.83846,132.25101 c 0,0.17146 -0.139,0.31046 -0.31046,0.31046 -0.17146,0 -0.31046,-0.139 -0.31046,-0.31046 0,-0.17147 0.139,-0.31046 0.31046,-0.31046 0.17146,0 0.31046,0.13899 0.31046,0.31046 z" />
          <circle
             id="_46629352"
             class="fil3 str5"
             cx="122.589"
             cy="136.30099"
             r="0.310462"
             sodipodi:cx="122.589"
             sodipodi:cy="136.30099"
             sodipodi:rx="0.310462"
             sodipodi:ry="0.310462"
             style="fill:#ffffff;stroke:#ffffff;stroke-width:0.75"
             d="m 122.89946,136.30099 c 0,0.17147 -0.139,0.31047 -0.31046,0.31047 -0.17147,0 -0.31047,-0.139 -0.31047,-0.31047 0,-0.17146 0.139,-0.31046 0.31047,-0.31046 0.17146,0 0.31046,0.139 0.31046,0.31046 z" />
        </g>
        <path
           id="_65718248"
           class="fil2 str2"
           d="m 182.769,134.004 c 0,-0.2177 -0.007,-0.4219 -0.0204,-0.6123 -0.0136,-0.1906 -0.0203,-0.364 -0.0203,-0.5205 l 0.7551,0 c 0,0.1292 0.003,0.2586 0.0102,0.3878 0.007,0.1293 0.0101,0.2619 0.0101,0.398 l 0.0205,0 c 0.0544,-0.1156 0.1309,-0.228 0.2296,-0.3368 0.0986,-0.1088 0.216,-0.2057 0.3521,-0.2908 0.1361,-0.085 0.2892,-0.1531 0.4592,-0.2041 0.1701,-0.051 0.3538,-0.0765 0.5511,-0.0765 0.0543,0 0.1088,0.003 0.1632,0.0102 0.0545,0.007 0.1089,0.0204 0.1633,0.0408 l -0.051,0.8062 c -0.1361,-0.0409 -0.2789,-0.0612 -0.4286,-0.0612 -0.4898,0 -0.8453,0.1581 -1.0664,0.4745 -0.2211,0.3164 -0.3317,0.75 -0.3317,1.3011 l 0,2.3267 -0.796,0 0,-3.6431 z m -1.5104,2.5104 c 0,0.2176 0.007,0.4218 0.0205,0.6122 0.0137,0.1905 0.0204,0.364 0.0204,0.5205 l -0.7551,0 c 0,-0.1292 -0.003,-0.2585 -0.0103,-0.3878 -0.007,-0.1293 -0.0102,-0.2619 -0.0102,-0.3979 l -0.0204,0 c -0.0543,0.1155 -0.1309,0.2279 -0.2296,0.3367 -0.0986,0.1089 -0.216,0.2058 -0.352,0.2909 -0.1361,0.0849 -0.2892,0.153 -0.4593,0.204 -0.17,0.051 -0.3537,0.0766 -0.551,0.0766 -0.3129,0 -0.5834,-0.0477 -0.8113,-0.1429 -0.2279,-0.0953 -0.4167,-0.2279 -0.5664,-0.398 -0.1497,-0.17 -0.2602,-0.3759 -0.3317,-0.6174 -0.0713,-0.2415 -0.1071,-0.5052 -0.1071,-0.7908 l 0,-2.9493 0.796,0 0,2.8676 c 0,0.4014 0.0884,0.7177 0.2654,0.949 0.1768,0.2313 0.4523,0.347 0.8266,0.347 0.2585,0 0.4812,-0.0442 0.6683,-0.1327 0.1872,-0.0883 0.3402,-0.2143 0.4592,-0.3775 0.1191,-0.1633 0.2076,-0.3572 0.2654,-0.5817 0.0579,-0.2245 0.0867,-0.4728 0.0867,-0.745 l 0,-2.3267 0.7959,0 0,3.6432 z m -10.5007,-1.2552 c 0,-0.3743 0.0647,-0.7144 0.1939,-1.0206 0.1292,-0.3061 0.3062,-0.5697 0.5307,-0.7908 0.2244,-0.2211 0.4932,-0.3929 0.8061,-0.5153 0.313,-0.1225 0.6532,-0.1837 1.0205,-0.1837 0.3674,0 0.7075,0.0612 1.0206,0.1837 0.3129,0.1224 0.5816,0.2942 0.8061,0.5153 0.2245,0.2211 0.4014,0.4847 0.5307,0.7908 0.1293,0.3062 0.1939,0.6463 0.1939,1.0206 0,0.3741 -0.0646,0.7143 -0.1939,1.0205 -0.1293,0.3061 -0.3062,0.5697 -0.5307,0.7908 -0.2245,0.2212 -0.4932,0.3929 -0.8061,0.5154 -0.3131,0.1224 -0.6532,0.1837 -1.0206,0.1837 -0.3673,0 -0.7075,-0.0613 -1.0205,-0.1837 -0.3129,-0.1225 -0.5817,-0.2942 -0.8061,-0.5154 -0.2245,-0.2211 -0.4015,-0.4847 -0.5307,-0.7908 -0.1292,-0.3062 -0.1939,-0.6464 -0.1939,-1.0205 z m 0.8572,0 c 0,0.2516 0.0392,0.4847 0.1174,0.699 0.0782,0.2143 0.1922,0.4014 0.3418,0.5612 0.1497,0.16 0.3283,0.2858 0.5358,0.3776 0.2075,0.0919 0.4405,0.1378 0.699,0.1378 0.2586,0 0.4916,-0.0459 0.6991,-0.1378 0.2074,-0.0918 0.3861,-0.2176 0.5358,-0.3776 0.1497,-0.1598 0.2636,-0.3469 0.3418,-0.5612 0.0782,-0.2143 0.1174,-0.4474 0.1174,-0.699 0,-0.2518 -0.0392,-0.4848 -0.1174,-0.6991 -0.0782,-0.2143 -0.1921,-0.4014 -0.3418,-0.5612 -0.1497,-0.1599 -0.3284,-0.2858 -0.5358,-0.3776 -0.2075,-0.0919 -0.4405,-0.1378 -0.6991,-0.1378 -0.2585,0 -0.4915,0.0459 -0.699,0.1378 -0.2075,0.0918 -0.3861,0.2177 -0.5358,0.3776 -0.1496,0.1598 -0.2636,0.3469 -0.3418,0.5612 -0.0782,0.2143 -0.1174,0.4473 -0.1174,0.6991 z m -1.5613,-1.7144 -1.4083,0 0,2.3879 c 0,0.1564 0.003,0.3011 0.0103,0.4336 0.007,0.1328 0.0339,0.2485 0.0815,0.3471 0.0477,0.0985 0.1191,0.1769 0.2144,0.2346 0.0952,0.0579 0.2312,0.0868 0.4082,0.0868 0.1156,0 0.2347,-0.0136 0.3571,-0.0409 0.1225,-0.0271 0.2382,-0.0679 0.347,-0.1224 l 0.0306,0.7246 c -0.136,0.0612 -0.2874,0.1055 -0.4541,0.1326 -0.1667,0.0272 -0.3249,0.0409 -0.4745,0.0409 -0.2858,0 -0.5136,-0.0374 -0.6838,-0.1123 -0.1701,-0.0748 -0.3027,-0.1803 -0.398,-0.3164 -0.0952,-0.136 -0.1581,-0.3044 -0.1887,-0.5051 -0.0307,-0.2007 -0.046,-0.4235 -0.046,-0.6684 l 0,-2.6226 -1.0409,0 0,-0.6736 1.0409,0 0,-1.3572 0.796,0 0,1.3572 1.4083,0 0,0.6736 z m -8.2864,0.4592 c 0,-0.2177 -0.007,-0.4219 -0.0204,-0.6123 -0.0136,-0.1906 -0.0204,-0.364 -0.0204,-0.5205 l 0.7552,0 c 0,0.1292 0.003,0.2586 0.0102,0.3878 0.007,0.1293 0.0101,0.2619 0.0101,0.398 l 0.0205,0 c 0.0544,-0.1156 0.1309,-0.228 0.2296,-0.3368 0.0986,-0.1088 0.216,-0.2057 0.3521,-0.2908 0.1361,-0.085 0.2891,-0.1531 0.4592,-0.2041 0.1701,-0.051 0.3538,-0.0765 0.5511,-0.0765 0.3129,0 0.5833,0.0476 0.8113,0.1428 0.2279,0.0952 0.4166,0.2279 0.5663,0.398 0.1497,0.1701 0.2602,0.3759 0.3316,0.6175 0.0715,0.2414 0.1071,0.5051 0.1071,0.7908 l 0,2.9492 -0.7959,0 0,-2.8675 c 0,-0.4015 -0.0884,-0.7178 -0.2653,-0.9491 -0.1768,-0.2314 -0.4524,-0.347 -0.8266,-0.347 -0.2585,0 -0.4813,0.0443 -0.6685,0.1327 -0.187,0.0884 -0.3401,0.2143 -0.4592,0.3775 -0.1189,0.1633 -0.2074,0.3573 -0.2653,0.5817 -0.0578,0.2245 -0.0867,0.4728 -0.0867,0.745 l 0,2.3267 -0.796,0 0,-3.6431 z m -6.3372,1.2552 c 0,-0.3743 0.0647,-0.7144 0.1939,-1.0206 0.1292,-0.3061 0.3062,-0.5697 0.5307,-0.7908 0.2244,-0.2211 0.4932,-0.3929 0.8061,-0.5153 0.313,-0.1225 0.6532,-0.1837 1.0205,-0.1837 0.3674,0 0.7075,0.0612 1.0206,0.1837 0.3129,0.1224 0.5816,0.2942 0.8061,0.5153 0.2245,0.2211 0.4014,0.4847 0.5307,0.7908 0.1293,0.3062 0.1939,0.6463 0.1939,1.0206 0,0.3741 -0.0646,0.7143 -0.1939,1.0205 -0.1293,0.3061 -0.3062,0.5697 -0.5307,0.7908 -0.2245,0.2212 -0.4932,0.3929 -0.8061,0.5154 -0.3131,0.1224 -0.6532,0.1837 -1.0206,0.1837 -0.3673,0 -0.7075,-0.0613 -1.0205,-0.1837 -0.3129,-0.1225 -0.5817,-0.2942 -0.8061,-0.5154 -0.2245,-0.2211 -0.4015,-0.4847 -0.5307,-0.7908 -0.1292,-0.3062 -0.1939,-0.6464 -0.1939,-1.0205 z m 0.8572,0 c 0,0.2516 0.0392,0.4847 0.1174,0.699 0.0782,0.2143 0.1922,0.4014 0.3418,0.5612 0.1497,0.16 0.3283,0.2858 0.5358,0.3776 0.2075,0.0919 0.4405,0.1378 0.699,0.1378 0.2586,0 0.4916,-0.0459 0.6991,-0.1378 0.2074,-0.0918 0.3861,-0.2176 0.5358,-0.3776 0.1497,-0.1598 0.2636,-0.3469 0.3418,-0.5612 0.0782,-0.2143 0.1174,-0.4474 0.1174,-0.699 0,-0.2518 -0.0392,-0.4848 -0.1174,-0.6991 -0.0782,-0.2143 -0.1921,-0.4014 -0.3418,-0.5612 -0.1497,-0.1599 -0.3284,-0.2858 -0.5358,-0.3776 -0.2075,-0.0919 -0.4405,-0.1378 -0.6991,-0.1378 -0.2585,0 -0.4915,0.0459 -0.699,0.1378 -0.2075,0.0918 -0.3861,0.2177 -0.5358,0.3776 -0.1496,0.1598 -0.2636,0.3469 -0.3418,0.5612 -0.0782,0.2143 -0.1174,0.4473 -0.1174,0.6991 z m -2.5614,-3.3473 c -0.2178,-0.2925 -0.4864,-0.5118 -0.8062,-0.6582 -0.3197,-0.1462 -0.6531,-0.2193 -1.0001,-0.2193 -0.4014,0 -0.7705,0.0816 -1.1072,0.2449 -0.3368,0.1632 -0.6276,0.3827 -0.8725,0.6582 -0.2449,0.2755 -0.4354,0.5953 -0.5715,0.9593 -0.136,0.3639 -0.2041,0.7432 -0.2041,1.1378 0,0.4217 0.0681,0.8146 0.2041,1.1786 0.1361,0.364 0.3249,0.6803 0.5664,0.9491 0.2416,0.2688 0.5306,0.4813 0.8673,0.6378 0.3368,0.1565 0.7094,0.2347 1.1175,0.2347 0.4422,0 0.8368,-0.0868 1.1838,-0.2602 0.347,-0.1735 0.6497,-0.4236 0.9082,-0.7501 l 0.6429,0.5408 c -0.3265,0.4355 -0.7194,0.7553 -1.1787,0.9593 -0.4592,0.2041 -0.9779,0.3062 -1.5562,0.3062 -0.517,0 -1.0001,-0.0952 -1.449,-0.2858 -0.4491,-0.1904 -0.8386,-0.454 -1.1686,-0.7908 -0.3299,-0.3367 -0.5884,-0.7364 -0.7755,-1.1991 -0.1871,-0.4626 -0.2807,-0.9695 -0.2807,-1.5205 0,-0.5307 0.0902,-1.0273 0.2705,-1.49 0.1803,-0.4626 0.4337,-0.864 0.7603,-1.2041 0.3265,-0.3401 0.7143,-0.6089 1.1634,-0.8062 0.4489,-0.1973 0.9421,-0.2959 1.4796,-0.2959 0.4898,0 0.9609,0.0885 1.4134,0.2653 0.4524,0.1769 0.8317,0.4661 1.1378,0.8674 l -0.7449,0.5408 z"
           inkscape:connector-curvature="0"
           style="fill:#605d5c;fill-rule:nonzero;stroke:#605d5c;stroke-width:0.5" />
        <polygon
           id="_91491256"
           class="fil2 str3"
           points="146.94,132.871 146.94,137.647 146.144,137.647 146.144,132.871 "
           style="fill:#605d5c;fill-rule:nonzero;stroke:#605d5c;stroke-width:0.2" />
        <path
           id="_65423328"
           class="fil2 str3"
           d="m 145.96,131.003 c 0,-0.1565 0.0562,-0.2926 0.1684,-0.4083 0.1122,-0.1156 0.25,-0.1734 0.4133,-0.1734 0.1633,0 0.3011,0.0578 0.4133,0.1734 0.1122,0.1157 0.1683,0.2518 0.1683,0.4083 0,0.17 -0.0543,0.3095 -0.1633,0.4183 -0.1088,0.1088 -0.2483,0.1633 -0.4183,0.1633 -0.1701,0 -0.3095,-0.0545 -0.4184,-0.1633 -0.1088,-0.1088 -0.1633,-0.2483 -0.1633,-0.4183 z"
           inkscape:connector-curvature="0"
           style="fill:#605d5c;fill-rule:nonzero;stroke:#605d5c;stroke-width:0.2" />
        <path
           id="_65811016"
           class="fil2"
           d="m 141.827,136.392 c 0.1564,0.1973 0.3282,0.3538 0.5153,0.4695 0.1871,0.1155 0.4235,0.1734 0.7092,0.1734 0.1225,0 0.2466,-0.0136 0.3725,-0.0409 0.1259,-0.0271 0.2398,-0.0713 0.3419,-0.1325 0.102,-0.0613 0.1837,-0.1378 0.2449,-0.2296 0.0613,-0.0919 0.0919,-0.2025 0.0919,-0.3317 0,-0.1293 -0.029,-0.2347 -0.0868,-0.3164 -0.0579,-0.0816 -0.1344,-0.1514 -0.2296,-0.2092 -0.0952,-0.0578 -0.2041,-0.1037 -0.3265,-0.1377 -0.1225,-0.0341 -0.2483,-0.0647 -0.3777,-0.0919 -0.2245,-0.0477 -0.4388,-0.102 -0.6429,-0.1633 -0.204,-0.0612 -0.3826,-0.1411 -0.5357,-0.2398 -0.1531,-0.0986 -0.2755,-0.2263 -0.3674,-0.3827 -0.0918,-0.1565 -0.1377,-0.3571 -0.1377,-0.6021 0,-0.2313 0.0509,-0.4354 0.153,-0.6122 0.1021,-0.177 0.2382,-0.3232 0.4083,-0.4389 0.17,-0.1156 0.3605,-0.204 0.5714,-0.2653 0.2109,-0.0612 0.4286,-0.0918 0.6531,-0.0918 0.3402,0 0.6549,0.068 0.9439,0.204 0.2891,0.1361 0.5154,0.3573 0.6787,0.6634 l -0.6634,0.4388 c -0.102,-0.1701 -0.2364,-0.3079 -0.403,-0.4133 -0.1667,-0.1055 -0.3691,-0.1582 -0.6073,-0.1582 -0.1088,0 -0.2193,0.0136 -0.3315,0.0409 -0.1124,0.0271 -0.2127,0.068 -0.3011,0.1224 -0.0885,0.0544 -0.1617,0.1242 -0.2194,0.2092 -0.0578,0.0851 -0.0868,0.182 -0.0868,0.2908 0,0.1021 0.0323,0.1889 0.0969,0.2602 0.0648,0.0715 0.1531,0.1344 0.2654,0.1889 0.1122,0.0544 0.2416,0.102 0.3878,0.1428 0.1463,0.0409 0.2977,0.0749 0.4541,0.1021 0.211,0.0407 0.4116,0.0935 0.6021,0.1581 0.1905,0.0646 0.3571,0.1514 0.5001,0.2603 0.1428,0.1088 0.255,0.2449 0.3367,0.4082 0.0816,0.1632 0.1225,0.3639 0.1225,0.602 0,0.2722 -0.0545,0.5035 -0.1633,0.6939 -0.1089,0.1906 -0.2534,0.3453 -0.4337,0.4644 -0.1803,0.119 -0.3844,0.2058 -0.6123,0.2603 -0.2279,0.0543 -0.4609,0.0816 -0.6991,0.0816 -0.4082,0 -0.7603,-0.063 -1.0562,-0.1888 -0.2959,-0.126 -0.563,-0.3589 -0.801,-0.6991 l 0.6327,-0.4898 z"
           inkscape:connector-curvature="0"
           style="fill:#605d5c;fill-rule:nonzero" />
        <path
           id="_65423672"
           class="fil2"
           d="m 140.215,136.514 c 0,0.2176 0.007,0.4218 0.0205,0.6122 0.0136,0.1905 0.0204,0.364 0.0204,0.5205 l -0.7551,0 c 0,-0.1292 -0.003,-0.2585 -0.0103,-0.3878 -0.007,-0.1293 -0.0102,-0.2619 -0.0102,-0.3979 l -0.0204,0 c -0.0544,0.1155 -0.1309,0.2279 -0.2296,0.3367 -0.0986,0.1089 -0.216,0.2058 -0.3521,0.2909 -0.1361,0.0849 -0.2891,0.153 -0.4592,0.204 -0.1701,0.051 -0.3537,0.0766 -0.5511,0.0766 -0.3128,0 -0.5833,-0.0477 -0.8112,-0.1429 -0.228,-0.0953 -0.4167,-0.2279 -0.5664,-0.398 -0.1497,-0.17 -0.2602,-0.3759 -0.3317,-0.6174 -0.0714,-0.2415 -0.1071,-0.5052 -0.1071,-0.7908 l 0,-2.9493 0.7959,0 0,2.8676 c 0,0.4014 0.0885,0.7177 0.2654,0.949 0.1768,0.2313 0.4524,0.347 0.8266,0.347 0.2586,0 0.4813,-0.0442 0.6684,-0.1327 0.1871,-0.0883 0.3402,-0.2143 0.4592,-0.3775 0.1191,-0.1633 0.2075,-0.3572 0.2654,-0.5817 0.0578,-0.2245 0.0866,-0.4728 0.0866,-0.745 l 0,-2.3267 0.796,0 0,3.6432 z"
           inkscape:connector-curvature="0"
           style="fill:#605d5c;fill-rule:nonzero" />
        <polygon
           id="_91491160"
           class="fil2"
           points="127.796,131.585 127.796,137.647 126.938,137.647 126.938,130.422 128.214,130.422 130.663,136.085 130.684,136.085 133.153,130.422 134.398,130.422 134.398,137.647 133.541,137.647 133.541,131.585 133.521,131.585 130.928,137.647 130.408,137.647 127.816,131.585 "
           style="fill:#605d5c;fill-rule:nonzero" />
      </g>
    </g>
  </g>
</svg>
